<svg width="76" height="76" viewBox="0 0 76 76" fill="none" xmlns="http://www.w3.org/2000/svg">
<path d="M19.2733 0.983887C20.8127 0.983887 22.0605 2.18398 22.0605 3.66437V9.07142C24.5329 9.0253 27.3041 9.0253 30.4222 9.0253H45.2875C48.4054 9.0253 51.1768 9.0253 53.6491 9.07142V3.66437C53.6491 2.18398 54.8969 0.983887 56.4364 0.983887C57.9755 0.983887 59.2237 2.18398 59.2237 3.66437V9.30858C64.5725 9.7205 68.0843 10.7314 70.6639 13.2125C73.2439 15.6935 74.2952 19.0705 74.7235 24.2147L75.0185 26.8951H4.40869H0.986328V24.2147C1.41464 19.0705 2.46586 15.6935 5.0457 13.2125C7.62557 10.7314 11.1371 9.7205 16.4861 9.30858V3.66437C16.4861 2.18398 17.734 0.983887 19.2733 0.983887Z" fill="#0D60B3"/>
<path opacity="0.5" d="M75.0178 45.4034V38.0002C75.0178 34.8942 75.006 29.3576 74.9582 26.895H1.02143C0.97364 29.3576 0.985743 34.8942 0.985743 38.0002V45.4034C0.985743 59.3629 0.985743 66.3427 5.32244 70.6795C9.65913 75.0163 16.639 75.0163 30.5986 75.0163H45.4049C59.3648 75.0163 66.3446 75.0163 70.6814 70.6795C75.0178 66.3427 75.0178 59.3629 75.0178 45.4034Z" fill="#0D60B3"/>
<path d="M18.518 35.9902C21.9452 35.9902 23.9948 37.9726 23.9948 41.3662V42.2398C23.9948 44.5246 23.3228 46.507 21.0716 50.1358L17.1068 56.4862H23.9948V59.8462H13.0412V56.8222L18.3164 48.3214C19.9628 45.667 20.4332 44.0206 20.4332 42.1054V41.635C20.4332 40.0894 19.7612 39.283 18.4508 39.283C17.1404 39.283 16.4684 40.0894 16.4684 42.0718V43.2478L13.0412 43.0798V41.467C13.0412 38.0062 15.0908 35.9902 18.518 35.9902ZM31.706 35.9902C35.2676 35.9902 37.4516 38.2414 37.4516 41.9374V54.235C37.4516 57.931 35.2676 60.1822 31.706 60.1822C28.1444 60.1822 25.9604 57.931 25.9604 54.235V41.9374C25.9604 38.2414 28.1444 35.9902 31.706 35.9902ZM31.706 39.283C30.2948 39.283 29.522 40.2238 29.522 41.971V54.2014C29.522 55.9486 30.2948 56.8894 31.706 56.8894C33.1172 56.8894 33.89 55.9486 33.89 54.2014V41.971C33.89 40.2238 33.1172 39.283 31.706 39.283ZM47.6068 59.8462H44.0452V41.7694H39.1396V39.283C41.9956 39.0814 44.3812 38.107 45.1204 36.3262H47.6068V59.8462ZM60.7295 36.3262V39.6862H54.2447L53.9423 45.2302H54.0095C54.5135 44.659 55.3871 44.1886 56.7983 44.1886C59.7551 44.1886 61.6031 46.2718 61.6031 49.9678V54.403C61.6031 58.0318 59.4863 60.1822 55.9247 60.1822C52.3631 60.1822 50.2463 58.099 50.2463 54.5374V53.6302L53.6735 53.4622V54.1006C53.6735 56.0158 54.4127 56.8894 55.8239 56.8894C57.3023 56.8894 58.0415 55.915 58.0415 54.1678V50.203C58.0415 48.4558 57.2687 47.4814 55.8239 47.4814C54.6143 47.4814 53.8415 48.187 53.7071 49.4638L53.6735 49.9342L50.3807 49.7998L51.1199 36.3262H60.7295Z" fill="white"/>
</svg>
