<svg width="111" height="113" viewBox="0 0 111 113" fill="none" xmlns="http://www.w3.org/2000/svg">
<path fill-rule="evenodd" clip-rule="evenodd" d="M54.9245 0.606445C61.0302 0.606445 65.9795 5.55612 65.9795 11.6618C65.9795 17.7675 61.0302 22.7168 54.9245 22.7168C48.8188 22.7168 43.8691 17.7675 43.8691 11.6618C43.8691 5.55612 48.8188 0.606445 54.9245 0.606445Z" fill="#7691B2"/>
<path fill-rule="evenodd" clip-rule="evenodd" d="M49.2559 25.5513H61.1614V93.2998H49.2559V25.5513Z" fill="#7691B2"/>
<path fill-rule="evenodd" clip-rule="evenodd" d="M0.5 59.2841H10.7045C16.4902 114.951 92.4313 116.596 99.7132 59.5677H110.5C107.814 88.4814 90.1163 110.403 54.3586 112.859C22.7636 111.052 2.70818 88.4931 0.5 59.2841Z" fill="#7691B2"/>
<path fill-rule="evenodd" clip-rule="evenodd" d="M45.7766 25.9934V38.071C27.4303 46.8126 27.2771 71.9538 45.7766 81.921V93.2109C9.8758 80.5775 14.2448 36.0117 45.7766 25.9934Z" fill="#7691B2"/>
<path fill-rule="evenodd" clip-rule="evenodd" d="M64.8594 25.9934V38.071C83.2056 46.8126 83.3589 71.9538 64.8594 81.921V93.2109C100.76 80.5775 96.3909 36.0117 64.8594 25.9934Z" fill="#7691B2"/>
</svg>
