<svg width="19" height="31" viewBox="0 0 19 31" fill="none" xmlns="http://www.w3.org/2000/svg">
<path d="M0.882812 25.7671V22.7721C6.12599 22.7721 10.3906 18.5061 10.3906 13.263V0.574219H13.3856V13.263C13.3856 20.1573 7.77712 25.7657 0.882812 25.7657V25.7671Z" fill="#FF622D"/>
<path d="M1.26486 30.8637H0.884766V27.8688H1.26486C9.36281 27.8688 15.9511 21.2804 15.9511 13.1825V0.606934H18.9461V13.1838C18.9461 22.9329 11.0139 30.8637 1.26486 30.8637Z" fill="#FF622D"/>
<path d="M1.06972 20.5924H0.837891V17.5974H1.06972C3.2546 17.5974 5.03108 15.8196 5.03108 13.6361V0.542969H8.02603V13.6361C8.02603 17.4721 4.90573 20.5924 1.06972 20.5924Z" fill="#FF622D"/>
</svg>
