<svg width="242" height="291" viewBox="0 0 242 291" fill="none" xmlns="http://www.w3.org/2000/svg">
<g opacity="0.2">
<path d="M272.488 211.75V172.836C193.104 172.836 128.535 117.407 128.535 49.2802V-115.589H83.1894V49.2802C83.1894 138.86 168.105 211.732 272.488 211.732V211.75Z" fill="#5F93D0"/>
<path d="M267.704 290.136H273.459V251.222H267.704C145.097 251.222 45.3453 165.617 45.3453 60.398V-103H6.10352e-05V60.4155C6.10352e-05 187.088 120.097 290.136 267.704 290.136Z" fill="#5F93D0"/>
<path d="M273.322 135.509H276.832V96.5943H273.322C240.242 96.5943 213.345 73.4944 213.345 45.1231V-125H167.999V45.1231C167.999 94.9656 215.243 135.509 273.322 135.509Z" fill="#5F93D0"/>
</g>
</svg>
