<svg width="33" height="32" viewBox="0 0 33 32" fill="none" xmlns="http://www.w3.org/2000/svg">
<path d="M29.8326 7.78665C29.7979 7.5791 29.7146 7.38272 29.5894 7.21355C29.4643 7.04438 29.3009 6.90723 29.1126 6.81331L26.8459 5.66665L25.6993 3.39998C25.6057 3.20755 25.4672 3.04045 25.2955 2.91282C25.1238 2.78518 24.9238 2.70074 24.7126 2.66665C24.5035 2.63221 24.2892 2.64811 24.0875 2.71304C23.8857 2.77797 23.7024 2.89004 23.5526 3.03998L20.8859 5.70665C20.7608 5.83282 20.6621 5.98274 20.5957 6.1476C20.5293 6.31246 20.4965 6.48894 20.4993 6.66665V10.12L15.5526 15.0533C15.4276 15.1773 15.3284 15.3247 15.2607 15.4872C15.1931 15.6497 15.1582 15.824 15.1582 16C15.1582 16.176 15.1931 16.3503 15.2607 16.5128C15.3284 16.6752 15.4276 16.8227 15.5526 16.9466C15.6766 17.0716 15.824 17.1708 15.9865 17.2385C16.149 17.3062 16.3233 17.341 16.4993 17.341C16.6753 17.341 16.8496 17.3062 17.012 17.2385C17.1745 17.1708 17.322 17.0716 17.4459 16.9466L22.3793 12H25.8326C26.0081 12.001 26.182 11.9674 26.3445 11.901C26.5069 11.8347 26.6547 11.7369 26.7793 11.6133L29.4459 8.94665C29.5982 8.79816 29.7128 8.61538 29.7801 8.41358C29.8473 8.21179 29.8654 7.99682 29.8326 7.78665Z" fill="#003471"/>
<path d="M16.4993 29.3332C12.9631 29.3332 9.57174 27.9284 7.07126 25.4279C4.57077 22.9274 3.16602 19.5361 3.16602 15.9998C3.16602 12.4636 4.57077 9.07223 7.07126 6.57175C9.57174 4.07126 12.9631 2.6665 16.4993 2.6665C16.853 2.6665 17.1921 2.80698 17.4422 3.05703C17.6922 3.30708 17.8327 3.64622 17.8327 3.99984C17.8327 4.35346 17.6922 4.6926 17.4422 4.94265C17.1921 5.19269 16.853 5.33317 16.4993 5.33317C14.3897 5.33317 12.3274 5.95876 10.5733 7.13083C8.81914 8.3029 7.45197 9.9688 6.64463 11.9179C5.8373 13.867 5.62606 16.0117 6.03764 18.0808C6.44921 20.1499 7.46512 22.0505 8.95688 23.5423C10.4486 25.0341 12.3493 26.05 14.4184 26.4615C16.4875 26.8731 18.6322 26.6619 20.5813 25.8545C22.5304 25.0472 24.1963 23.68 25.3684 21.9259C26.5404 20.1718 27.166 18.1095 27.166 15.9998C27.166 15.6462 27.3065 15.3071 27.5565 15.057C27.8066 14.807 28.1457 14.6665 28.4993 14.6665C28.853 14.6665 29.1921 14.807 29.4422 15.057C29.6922 15.3071 29.8327 15.6462 29.8327 15.9998C29.8327 19.5361 28.4279 22.9274 25.9274 25.4279C23.427 27.9284 20.0356 29.3332 16.4993 29.3332ZM23.166 15.9998C23.166 15.6462 23.0255 15.3071 22.7755 15.057C22.5254 14.807 22.1863 14.6665 21.8327 14.6665C21.4791 14.6665 21.1399 14.807 20.8899 15.057C20.6398 15.3071 20.4993 15.6462 20.4993 15.9998C20.4993 16.791 20.2647 17.5643 19.8252 18.2221C19.3857 18.8799 18.761 19.3926 18.0301 19.6954C17.2992 19.9981 16.4949 20.0773 15.719 19.923C14.9431 19.7686 14.2303 19.3877 13.6709 18.8283C13.1115 18.2689 12.7305 17.5561 12.5762 16.7802C12.4219 16.0043 12.5011 15.2 12.8038 14.4691C13.1066 13.7382 13.6193 13.1135 14.2771 12.674C14.9349 12.2344 15.7082 11.9998 16.4993 11.9998C16.853 11.9998 17.1921 11.8594 17.4422 11.6093C17.6922 11.3593 17.8327 11.0201 17.8327 10.6665C17.8327 10.3129 17.6922 9.97374 17.4422 9.72369C17.1921 9.47365 16.853 9.33317 16.4993 9.33317C15.1808 9.33317 13.8919 9.72416 12.7955 10.4567C11.6992 11.1892 10.8447 12.2304 10.3402 13.4486C9.83557 14.6668 9.70354 16.0072 9.96078 17.3004C10.218 18.5936 10.853 19.7815 11.7853 20.7139C12.7177 21.6462 13.9055 22.2812 15.1987 22.5384C16.492 22.7956 17.8324 22.6636 19.0506 22.159C20.2687 21.6544 21.3099 20.8 22.0425 19.7036C22.775 18.6073 23.166 17.3184 23.166 15.9998Z" fill="#FF622D"/>
</svg>
